# xmcd CD database file
#
# Track frame offsets:
#	150
#	15979
#	33281
#
# Disc length: 688 seconds
#
# Revision: 0
# Processed by: cddbd v1.5.1PL2 Copyright (c) Steve Scherf et al.
# Submitted via: CDex 1.51
#
DISCID=1302ae03
DTITLE=Colors of Love - oneAnother
DYEAR=2004
DGENRE=Pop
TTITLE0=Enough
TTITLE1=Hey you
TTITLE2=Savior
EXTD=YEAR: 2004
EXTT0=
EXTT1=
EXTT2=
PLAYORDER=
